# xmcd
# 
# Track frame offsets:
#	150
#	16687
#	38148
#	58721
#	75211
#
# Disc length: 1232 seconds
#
# Revision: 1
# Processed by: cddbd v1.4PL0 Copyright (c) Steve Scherf et al.
# Submitted via: Audio-CD-Archiv 2.10.435
#
DISCID=2904ce05
DTITLE=Elke aus Klagenfurt - Die Rose vom Wörthersee
DYEAR=1900
DGENRE=country
TTITLE0=Single version
TTITLE1=Long Single version
TTITLE2=Club Version
TTITLE3=Karaoke Version
TTITLE4=The Rose
EXTD=
EXTT0=
EXTT1=
EXTT2=
EXTT3=
EXTT4=
PLAYORDER=
